<svg width="308" height="308" viewBox="0 0 308 308" fill="none" xmlns="http://www.w3.org/2000/svg">
<g clip-path="url(#clip0_149_3022)">
<rect x="3" y="3" width="302" height="302" rx="151" fill="url(#paint0_linear_149_3022)"/>
<g style="mix-blend-mode:multiply">
<path d="M2141.54 33.4745C2127.11 36.1714 2112.3 39.9539 2096.8 44.7237C2070.88 52.7044 2044.95 60.6852 2019.02 62.4834C1995.23 64.1333 1968.12 56.134 1936.14 46.697C1895.8 34.7938 1847.7 20.6031 1788.75 20.6031C1746.64 20.6031 1710.53 30.2533 1675.75 39.5461C1623.22 53.5824 1573.74 66.8035 1511.28 44.7237C1407.47 8.02574 1342.35 9.03916 1256.47 49.1729C1170.59 89.3067 1100.61 81.8102 1043.49 63.5465C1037.95 61.7776 1032.48 59.9239 1027.04 58.0834C1005.36 50.7443 984.3 43.6162 962.795 42.9208C932.654 41.8069 902.513 51.9275 872.371 62.048C848.718 69.9898 825.066 77.9316 801.413 80.4447C771.499 83.6231 741.584 78.0408 711.67 72.4586C687.79 68.0025 663.911 63.5465 640.032 63.5465C615.183 63.5465 590.334 68.3718 565.486 73.1971C536.541 78.8177 507.596 84.4384 478.651 82.4327C452.724 80.6361 426.796 72.6625 400.868 64.6889C373.002 56.1192 345.136 47.5495 317.27 46.6483C276.122 45.1277 240.595 53.4465 205.154 61.745C161.574 71.9495 118.125 82.1233 64.5151 73.9338C35.5435 69.508 7.84448 62.3557 -19.486 55.2986C-84.6815 38.4642 -147.779 22.1714 -221.046 44.7237C-246.974 52.7044 -272.901 60.6852 -298.829 62.4834C-327.774 64.4909 -356.719 58.8652 -385.664 53.2395C-437.741 43.1178 -479.656 42.7523 -531.848 52.5003C-561.762 58.0876 -591.677 63.6749 -621.591 60.4936C-645.244 57.9783 -668.896 50.0294 -692.548 42.0805C-757.549 20.2356 -799.957 20.163 -863.663 43.5803C-869.529 45.7364 -875.619 48.1473 -881.836 50.6083C-904.125 59.4317 -928.042 68.8992 -949.073 69.5799C-1108.71 69.5799 -1108.66 72.9592 -1106.39 234.346C-1106.08 256.145 -1105.74 280.828 -1105.74 308.775L2141.54 308.775V33.4745Z" fill="#93DCEC"/>
</g>
<g style="mix-blend-mode:multiply">
<path d="M2539.8 33.4745C2525.37 36.1714 2510.56 39.9539 2495.07 44.7237C2469.14 52.7044 2443.21 60.6852 2417.28 62.4834C2393.49 64.1333 2366.38 56.134 2334.4 46.697C2294.06 34.7938 2245.97 20.6031 2187.01 20.6031C2144.9 20.6031 2108.79 30.2533 2074.01 39.5461C2021.48 53.5824 1972.01 66.8035 1909.55 44.7237C1805.73 8.02574 1740.61 9.03916 1654.73 49.1729C1568.85 89.3067 1498.87 81.8102 1441.75 63.5465C1436.22 61.7776 1430.74 59.9239 1425.3 58.0834C1403.62 50.7443 1382.56 43.6162 1361.06 42.9208C1330.92 41.8069 1300.77 51.9275 1270.63 62.048C1246.98 69.9898 1223.33 77.9316 1199.67 80.4447C1169.76 83.6231 1139.85 78.0408 1109.93 72.4586C1086.05 68.0025 1062.17 63.5465 1038.29 63.5465C1013.45 63.5465 988.596 68.3718 963.747 73.1971C934.802 78.8177 905.858 84.4384 876.913 82.4327C850.985 80.6361 825.058 72.6625 799.13 64.6889C771.264 56.1192 743.398 47.5495 715.532 46.6483C674.384 45.1277 638.856 53.4465 603.416 61.745C559.836 71.9495 516.386 82.1233 462.777 73.9338C433.805 69.508 406.106 62.3557 378.776 55.2986C313.58 38.4642 250.483 22.1714 177.216 44.7237C151.288 52.7044 125.36 60.6852 99.4329 62.4834C70.488 64.4909 41.5431 58.8652 12.5982 53.2395C-39.479 43.1178 -81.3945 42.7523 -133.586 52.5003C-163.501 58.0876 -193.415 63.6749 -223.33 60.4936C-246.982 57.9783 -270.634 50.0294 -294.287 42.0805C-359.287 20.2356 -401.695 20.163 -465.401 43.5803C-471.267 45.7364 -477.357 48.1473 -483.574 50.6083C-505.864 59.4317 -529.78 68.8992 -550.811 69.5799C-710.447 69.5799 -710.4 72.9592 -708.128 234.346C-707.821 256.145 -707.473 280.828 -707.473 308.775L2539.8 308.775V33.4745Z" fill="#93DCEC"/>
</g>
<g style="mix-blend-mode:multiply">
<path d="M-2192.16 33.4745C-2177.74 36.1714 -2162.92 39.9539 -2147.43 44.7237C-2121.5 52.7044 -2095.57 60.6852 -2069.65 62.4834C-2045.86 64.1333 -2018.75 56.134 -1986.76 46.697C-1946.42 34.7938 -1898.33 20.6031 -1839.37 20.6031C-1797.27 20.6031 -1761.15 30.2533 -1726.38 39.5461C-1673.85 53.5824 -1624.37 66.8035 -1561.91 44.7237C-1458.1 8.02574 -1392.98 9.03916 -1307.1 49.1729C-1221.21 89.3067 -1151.23 81.8102 -1094.11 63.5465C-1088.58 61.7776 -1083.1 59.9239 -1077.66 58.0834C-1055.98 50.7443 -1034.92 43.6162 -1013.42 42.9208C-983.279 41.8069 -953.138 51.9275 -922.996 62.048C-899.343 69.9898 -875.691 77.9316 -852.038 80.4447C-822.124 83.6231 -792.209 78.0408 -762.295 72.4586C-738.415 68.0025 -714.536 63.5465 -690.657 63.5465C-665.808 63.5465 -640.959 68.3718 -616.111 73.1971C-587.166 78.8177 -558.221 84.4384 -529.276 82.4327C-503.349 80.6361 -477.421 72.6625 -451.493 64.6889C-423.627 56.1192 -395.761 47.5495 -367.895 46.6483C-326.747 45.1277 -291.22 53.4465 -255.779 61.745C-212.199 71.9495 -168.75 82.1233 -115.14 73.9338C-86.1685 69.508 -58.4695 62.3557 -31.139 55.2986C34.0565 38.4642 97.1539 22.1714 170.421 44.7237C196.349 52.7044 222.276 60.6852 248.204 62.4834C277.149 64.4909 306.094 58.8652 335.039 53.2395C387.116 43.1178 429.031 42.7523 481.223 52.5003C511.137 58.0876 541.052 63.6749 570.966 60.4936C594.619 57.9783 618.271 50.0294 641.923 42.0805C706.924 20.2356 749.332 20.163 813.038 43.5803C818.904 45.7364 824.994 48.1473 831.211 50.6083C853.5 59.4317 877.417 68.8992 898.448 69.5799C1058.08 69.5799 1058.04 72.9592 1055.76 234.346C1055.46 256.145 1055.11 280.828 1055.11 308.775L-2192.16 308.775V33.4745Z" fill="#93DCEC"/>
</g>
<g style="mix-blend-mode:multiply">
<path d="M-2386.58 33.4745C-2372.15 36.1714 -2357.34 39.9539 -2341.84 44.7237C-2315.91 52.7044 -2289.99 60.6852 -2264.06 62.4834C-2240.27 64.1333 -2213.16 56.134 -2181.18 46.697C-2140.83 34.7938 -2092.74 20.6031 -2033.78 20.6031C-1991.68 20.6031 -1955.56 30.2533 -1920.79 39.5461C-1868.26 53.5824 -1818.78 66.8035 -1756.32 44.7237C-1652.51 8.02574 -1587.39 9.03916 -1501.51 49.1729C-1415.63 89.3067 -1345.65 81.8102 -1288.52 63.5465C-1282.99 61.7776 -1277.51 59.9239 -1272.08 58.0834C-1250.4 50.7443 -1229.34 43.6162 -1207.83 42.9208C-1177.69 41.8069 -1147.55 51.9275 -1117.41 62.048C-1093.76 69.9898 -1070.1 77.9316 -1046.45 80.4447C-1016.54 83.6231 -986.621 78.0408 -956.707 72.4586C-932.828 68.0025 -908.948 63.5465 -885.069 63.5465C-860.22 63.5465 -835.372 68.3718 -810.523 73.1971C-781.578 78.8177 -752.633 84.4384 -723.688 82.4327C-697.761 80.6361 -671.833 72.6625 -645.906 64.6889C-618.039 56.1192 -590.173 47.5495 -562.307 46.6483C-521.159 45.1277 -485.632 53.4465 -450.191 61.745C-406.611 71.9495 -363.162 82.1233 -309.552 73.9338C-280.581 69.508 -252.882 62.3557 -225.551 55.2986C-160.356 38.4642 -97.2582 22.1714 -23.9911 44.7237C1.93652 52.7044 27.8641 60.6852 53.7917 62.4834C82.7366 64.4909 111.682 58.8652 140.626 53.2395C192.704 43.1178 234.619 42.7523 286.811 52.5003C316.725 58.0876 346.64 63.6749 376.554 60.4936C400.207 57.9783 423.859 50.0294 447.511 42.0805C512.512 20.2356 554.92 20.163 618.626 43.5803C624.492 45.7364 630.582 48.1473 636.799 50.6083C659.088 59.4317 683.004 68.8992 704.036 69.5799C863.672 69.5799 863.625 72.9592 861.352 234.346C861.046 256.145 860.698 280.828 860.698 308.775L-2386.58 308.775V33.4745Z" fill="#93DCEC"/>
</g>
</g>
<rect x="3" y="3" width="302" height="302" rx="151" stroke="#F7F7F8" stroke-width="5.6625"/>
<defs>
<linearGradient id="paint0_linear_149_3022" x1="154" y1="273.856" x2="154" y2="18.1" gradientUnits="userSpaceOnUse">
<stop stop-color="#B3B3B3"/>
<stop offset="1" stop-color="white"/>
</linearGradient>
<clipPath id="clip0_149_3022">
<rect x="3" y="3" width="302" height="302" rx="151" fill="white"/>
</clipPath>
</defs>
</svg>
